<svg id="camera-light" xmlns="http://www.w3.org/2000/svg" width="44" height="44" viewBox="0 0 44 44">
  <path id="Path_57" data-name="Path 57" d="M0,0H44V44H0Z" fill="none"/>
  <path id="Path_58" data-name="Path 58" d="M30.333,13.533,39.89,6.842a.917.917,0,0,1,1.443.752V29.74a.917.917,0,0,1-1.443.752L30.333,23.8v7.7A1.833,1.833,0,0,1,28.5,33.333H2.833A1.833,1.833,0,0,1,1,31.5V5.833A1.833,1.833,0,0,1,2.833,4H28.5a1.833,1.833,0,0,1,1.833,1.833Zm0,5.791,7.333,5.133V12.873l-7.333,5.133v1.316ZM4.667,7.667v22h22v-22Zm3.667,3.667H12V15H8.333Z" transform="translate(0.833 3.333)" fill="rgba(16,20,24,0.3)"/>
</svg>
