<svg id="database-light" xmlns="http://www.w3.org/2000/svg" width="44" height="44" viewBox="0 0 44 44">
  <path id="Path_13" data-name="Path 13" d="M0,0H44V44H0Z" fill="none"/>
  <path id="Path_14" data-name="Path 14" d="M6.667,20.417c0,.574.845,1.573,2.805,2.554A23.219,23.219,0,0,0,19.5,25a23.219,23.219,0,0,0,10.028-2.029c1.96-.981,2.805-1.98,2.805-2.554v-3.98C29.308,18.306,24.683,19.5,19.5,19.5S9.692,18.3,6.667,16.437ZM32.333,25.6c-3.025,1.87-7.651,3.063-12.833,3.063S9.692,27.471,6.667,25.6v3.98c0,.574.845,1.573,2.805,2.554A23.219,23.219,0,0,0,19.5,34.167a23.219,23.219,0,0,0,10.028-2.03c1.96-.981,2.805-1.98,2.805-2.554ZM3,29.583V11.25C3,6.694,10.388,3,19.5,3S36,6.694,36,11.25V29.583c0,4.556-7.388,8.25-16.5,8.25S3,34.139,3,29.583Zm16.5-13.75A23.219,23.219,0,0,0,29.528,13.8c1.96-.981,2.805-1.98,2.805-2.554S31.488,9.677,29.528,8.7A23.219,23.219,0,0,0,19.5,6.667,23.219,23.219,0,0,0,9.472,8.7c-1.96.981-2.805,1.98-2.805,2.554s.845,1.573,2.805,2.554A23.219,23.219,0,0,0,19.5,15.833Z" transform="translate(2.5 2.5)" fill="rgba(16,20,24,0.3)"/>
</svg>
