<svg id="file-light" xmlns="http://www.w3.org/2000/svg" width="44" height="44" viewBox="0 0 44 44">
  <path id="Path_15" data-name="Path 15" d="M0,0H44V44H0Z" fill="none"/>
  <path id="Path_16" data-name="Path 16" d="M34.167,38.667H4.833A1.833,1.833,0,0,1,3,36.833v-33A1.833,1.833,0,0,1,4.833,2H34.167A1.833,1.833,0,0,1,36,3.833v33A1.833,1.833,0,0,1,34.167,38.667ZM32.333,35V5.667H6.667V35ZM12.167,11.167H26.833v3.667H12.167Zm0,7.333H26.833v3.667H12.167Zm0,7.333H26.833V29.5H12.167Z" transform="translate(2.5 1.667)" fill="rgba(16,20,24,0.3)"/>
</svg>
