<svg id="fingerprint-light" xmlns="http://www.w3.org/2000/svg" width="44" height="44" viewBox="0 0 44 44">
  <path id="Path_21" data-name="Path 21" d="M0,0H44V44H0Z" fill="none"/>
  <path id="Path_22" data-name="Path 22" d="M29.209,22.167V24A31.043,31.043,0,0,1,25.7,38.384l-.416.77-3.2-1.786a27.322,27.322,0,0,0,3.45-12.533L25.542,24V22.167Zm-11-5.5h3.667V24l-.009.695a23.725,23.725,0,0,1-4.934,13.84l-.424.532-2.842-2.317A20.064,20.064,0,0,0,18.2,24.671L18.209,24Zm1.833-7.333A9.167,9.167,0,0,1,29.209,18.5H25.542a5.5,5.5,0,1,0-11,0V24a16.45,16.45,0,0,1-4.163,10.958l-.389.422L7.336,32.85a12.777,12.777,0,0,0,3.529-8.294L10.876,24V18.5a9.167,9.167,0,0,1,9.167-9.167Zm0-7.333a16.5,16.5,0,0,1,16.5,16.5V24a38.583,38.583,0,0,1-1.094,9.148l-.255.988-3.538-.964a34.785,34.785,0,0,0,1.206-8.131L32.876,24V18.5A12.833,12.833,0,0,0,12.357,8.222L9.745,5.608A16.43,16.43,0,0,1,20.042,2ZM7.15,8.2l2.614,2.613a12.771,12.771,0,0,0-2.548,7.243l-.007.442.007,3.667a12.763,12.763,0,0,1-1.4,5.824l-.286.532L2.349,26.7a9.076,9.076,0,0,0,1.184-4l.016-.535V18.5a16.39,16.39,0,0,1,3.6-10.3Z" transform="translate(1.957 1.667)" fill="rgba(16,20,24,0.3)"/>
</svg>
