<svg id="folder-open-light" xmlns="http://www.w3.org/2000/svg" width="44" height="44" viewBox="0 0 44 44">
  <path id="Path_27" data-name="Path 27" d="M0,0H44V44H0Z" fill="none"/>
  <path id="Path_28" data-name="Path 28" d="M3.833,36A1.833,1.833,0,0,1,2,34.167V4.833A1.833,1.833,0,0,1,3.833,3H17.426l3.667,3.667H35A1.833,1.833,0,0,1,36.833,8.5V14H33.167V10.333H19.574L15.908,6.667H5.667v22l2.75-11H39.583L35.348,34.612A1.833,1.833,0,0,1,33.57,36ZM34.886,21.333H11.28l-2.75,11H32.136Z" transform="translate(1.667 2.5)" fill="rgba(16,20,24,0.3)"/>
</svg>
