<svg id="gatsby-light" xmlns="http://www.w3.org/2000/svg" width="44" height="44" viewBox="0 0 44 44">
  <path id="Path_29" data-name="Path 29" d="M0,0H44V44H0Z" fill="none"/>
  <path id="Path_30" data-name="Path 30" d="M19.874,38.661a18.336,18.336,0,0,1-17.849-17.3L2,20.784,19.874,38.661ZM20.331,2A18.311,18.311,0,0,1,35.351,9.819l-3,2.1A14.672,14.672,0,0,0,6.643,15.053L25.611,34.021A14.7,14.7,0,0,0,34.536,24H26.748V20.333H38.664A18.34,18.34,0,0,1,24.575,38.172L2.491,16.091A18.345,18.345,0,0,1,20.331,2Z" transform="translate(1.669 1.667)" fill="rgba(16,20,24,0.3)"/>
</svg>
