<svg id="git" xmlns="http://www.w3.org/2000/svg" width="44" height="44" viewBox="0 0 44 44">
  <path id="Path_65" data-name="Path 65" d="M0,0H44V44H0Z" fill="none"/>
  <path id="Path_66" data-name="Path 66" d="M10.528,25.386a5.5,5.5,0,1,1-3.859-.073V13.689a5.5,5.5,0,1,1,3.667,0V19.5a9.123,9.123,0,0,1,5.5-1.833h7.333a5.5,5.5,0,0,0,5.308-4.052,5.5,5.5,0,1,1,3.725.118,9.168,9.168,0,0,1-9.033,7.6H15.835a5.5,5.5,0,0,0-5.308,4.052ZM8.5,28.668A1.833,1.833,0,1,0,10.335,30.5,1.833,1.833,0,0,0,8.5,28.668Zm0-22A1.833,1.833,0,1,0,10.335,8.5,1.833,1.833,0,0,0,8.5,6.668Zm22,0A1.833,1.833,0,1,0,32.335,8.5,1.833,1.833,0,0,0,30.5,6.668Z" transform="translate(2.498 2.499)" fill="rgba(16,20,24,0.3)"/>
</svg>
