<svg id="i18n-light" xmlns="http://www.w3.org/2000/svg" width="44" height="44" viewBox="0 0 44 44">
  <path id="Path_55" data-name="Path 55" d="M0,0H44V44H0Z" fill="none"/>
  <path id="Path_56" data-name="Path 56" d="M32.25,16.667l8.067,20.167H36.366l-2.2-5.5h-7.5l-2.2,5.5H20.518l8.065-20.167ZM16.667,2V5.667h11V9.333H24.059a33.407,33.407,0,0,1-6.637,11.552,27.251,27.251,0,0,0,4.283,3.13l-1.377,3.443A31.194,31.194,0,0,1,14.833,23.5,30.573,30.573,0,0,1,3.465,30l-.983-3.537a26.95,26.95,0,0,0,9.766-5.577A33.143,33.143,0,0,1,7.073,13h4.107a29.392,29.392,0,0,0,3.654,5.274,29.636,29.636,0,0,0,5.335-8.939L2,9.333V5.667H13V2Zm13.75,19.956-2.286,5.711H32.7Z" transform="translate(1.667 1.667)" fill="rgba(16,20,24,0.3)"/>
</svg>
