<svg id="image-light" xmlns="http://www.w3.org/2000/svg" width="44" height="44" viewBox="0 0 44 44">
  <path id="Path_33" data-name="Path 33" d="M0,0H44V44H0Z" fill="none"/>
  <path id="Path_34" data-name="Path 34" d="M7.185,36l-.037.037L7.11,36H3.819A1.821,1.821,0,0,1,2,34.179V4.821A1.833,1.833,0,0,1,3.819,3H36.848a1.82,1.82,0,0,1,1.819,1.821V34.18A1.833,1.833,0,0,1,36.848,36ZM35,25V6.667H5.667V32.333L24,14Zm0,5.185-11-11L10.851,32.333H35ZM13,17.667A3.667,3.667,0,1,1,16.667,14,3.667,3.667,0,0,1,13,17.667Z" transform="translate(1.667 2.5)" fill="rgba(16,20,24,0.3)"/>
</svg>
