<svg id="react-light" xmlns="http://www.w3.org/2000/svg" width="44" height="44" viewBox="0 0 44 44">
  <path id="Path_47" data-name="Path 47" d="M0,0H44V44H0Z" fill="none"/>
  <path id="Path_48" data-name="Path 48" d="M20.75,22.559a2.75,2.75,0,1,1,2.75-2.75A2.75,2.75,0,0,1,20.75,22.559Zm-.968,5.489c.321.385.643.759.968,1.116q.487-.536.968-1.116-.968.021-1.936,0Zm-3.658-.229a37.91,37.91,0,0,1-4.189-.675c-.138.642-.242,1.265-.312,1.863-.348,2.9.138,4.666.876,5.091s2.508-.035,4.849-1.786q.723-.542,1.456-1.2a37.908,37.908,0,0,1-2.68-3.293Zm13.44-.675a36.979,36.979,0,0,1-4.189.675,37.909,37.909,0,0,1-2.68,3.293q.731.66,1.456,1.2c2.341,1.751,4.11,2.213,4.849,1.786s1.223-2.189.878-5.091q-.114-.938-.312-1.863Zm2.658-.71c1.058,4.838.5,8.69-1.848,10.047s-5.964-.088-9.625-3.423c-3.661,3.335-7.275,4.778-9.625,3.421s-2.906-5.207-1.85-10.047C4.556,24.931,1.5,22.522,1.5,19.809s3.056-5.12,7.775-6.626c-1.056-4.838-.5-8.69,1.85-10.047s5.964.088,9.625,3.423c3.661-3.335,7.275-4.778,9.625-3.421s2.906,5.207,1.85,10.047C36.944,14.686,40,17.1,40,19.809s-3.056,5.121-7.775,6.626ZM18.8,8.506q-.7-.633-1.454-1.2C15.008,5.554,13.239,5.092,12.5,5.52s-1.223,2.189-.878,5.091c.073.6.176,1.221.312,1.863a37.91,37.91,0,0,1,4.191-.675A37.621,37.621,0,0,1,18.8,8.506ZM25.376,11.8a37.4,37.4,0,0,1,4.189.675c.138-.642.242-1.265.312-1.863.348-2.9-.138-4.666-.876-5.091s-2.508.035-4.849,1.786q-.755.567-1.456,1.2A37.623,37.623,0,0,1,25.376,11.8Zm-3.658-.229c-.321-.385-.643-.759-.968-1.117q-.487.536-.968,1.117.968-.021,1.936,0ZM14.1,24.766q-.5-.827-.968-1.676c-.174.471-.336.935-.482,1.4.471.1.955.2,1.448.28Zm3.542.429a41.979,41.979,0,0,0,6.219,0,41.978,41.978,0,0,0,3.109-5.386,41.978,41.978,0,0,0-3.109-5.386,41.978,41.978,0,0,0-6.219,0,41.977,41.977,0,0,0-3.109,5.386,41.978,41.978,0,0,0,3.109,5.386Zm10.729-8.668c.174-.471.336-.935.482-1.4q-.721-.156-1.448-.28.5.828.966,1.676ZM9.988,15.843q-.935.3-1.767.66C5.535,17.654,4.25,18.956,4.25,19.809s1.283,2.154,3.971,3.305q.831.358,1.767.66A38.155,38.155,0,0,1,11.5,19.809a37.91,37.91,0,0,1-1.512-3.965Zm2.658-.711c.148.458.31.924.484,1.393q.466-.847.968-1.674-.743.127-1.45.281Zm18.865,8.642q.935-.3,1.767-.66c2.686-1.151,3.971-2.453,3.971-3.306s-1.283-2.154-3.971-3.305q-.868-.37-1.767-.66A38.155,38.155,0,0,1,30,19.809a38,38,0,0,1,1.513,3.965Zm-2.658.711c-.149-.458-.31-.924-.484-1.393q-.466.847-.968,1.674.743-.126,1.45-.281Z" transform="translate(1.25 2.191)" fill="rgba(16,20,24,0.3)"/>
</svg>
