<svg id="settings-light" xmlns="http://www.w3.org/2000/svg" width="44" height="44" viewBox="0 0 44 44">
  <path id="Path_49" data-name="Path 49" d="M0,0H44V44H0Z" fill="none"/>
  <path id="Path_50" data-name="Path 50" d="M19.917,1,37.333,11.083V31.25L19.917,41.333,2.5,31.25V11.083Zm0,4.237L6.167,13.2V29.136l13.75,7.96,13.75-7.96V13.2Zm0,23.263a7.333,7.333,0,1,1,7.333-7.333A7.333,7.333,0,0,1,19.917,28.5Zm0-3.667a3.667,3.667,0,1,0-3.667-3.667A3.667,3.667,0,0,0,19.917,24.833Z" transform="translate(2.083 0.833)" fill="rgba(16,20,24,0.3)"/>
</svg>
