<svg id="shield-check-light" xmlns="http://www.w3.org/2000/svg" width="44" height="44" viewBox="0 0 44 44">
  <path id="Path_51" data-name="Path 51" d="M0,0H44V44H0Z" fill="none"/>
  <path id="Path_52" data-name="Path 52" d="M19.5,1,34.564,4.348A1.834,1.834,0,0,1,36,6.137v18.31A11,11,0,0,1,31.1,33.6L19.5,41.333,7.9,33.6A11,11,0,0,1,3,24.448V6.137A1.834,1.834,0,0,1,4.436,4.348Zm0,3.757L6.667,7.607V24.447a7.333,7.333,0,0,0,3.265,6.1l9.568,6.38,9.568-6.38a7.33,7.33,0,0,0,3.265-6.1V7.607L19.5,4.758Zm8.162,9.484,2.594,2.592L18.589,28.5,10.81,20.721,13.4,18.129l5.185,5.185,9.075-9.075Z" transform="translate(2.5 0.833)" fill="rgba(16,20,24,0.3)"/>
</svg>
