<svg id="zip-light" xmlns="http://www.w3.org/2000/svg" width="44" height="44" viewBox="0 0 44 44">
  <path id="Path_17" data-name="Path 17" d="M0,0H44V44H0Z" fill="none"/>
  <path id="Path_18" data-name="Path 18" d="M34.167,38.667H4.833A1.833,1.833,0,0,1,3,36.833v-33A1.833,1.833,0,0,1,4.833,2H34.167A1.833,1.833,0,0,1,36,3.833v33A1.833,1.833,0,0,1,34.167,38.667ZM32.333,35V5.667H6.667V35ZM23.167,20.333V29.5H15.833V24H19.5V20.333ZM19.5,5.667h3.667V9.333H19.5ZM15.833,9.333H19.5V13H15.833ZM19.5,13h3.667v3.667H19.5Zm-3.667,3.667H19.5v3.667H15.833Z" transform="translate(2.5 1.667)" fill="rgba(16,20,24,0.3)"/>
</svg>
