<svg id="book-dark" xmlns="http://www.w3.org/2000/svg" width="44" height="44" viewBox="0 0 44 44">
  <path id="Path_5" data-name="Path 5" d="M0,0H44V44H0Z" fill="none"/>
  <path id="Path_6" data-name="Path 6" d="M22.167,36v3.667H18.5V36H3.833A1.833,1.833,0,0,1,2,34.167V4.833A1.833,1.833,0,0,1,3.833,3h11a7.315,7.315,0,0,1,5.5,2.482A7.315,7.315,0,0,1,25.833,3h11a1.833,1.833,0,0,1,1.833,1.833V34.167A1.833,1.833,0,0,1,36.833,36ZM35,32.333V6.667H25.833a3.667,3.667,0,0,0-3.667,3.667v22Zm-16.5,0v-22a3.667,3.667,0,0,0-3.667-3.667H5.667V32.333Z" transform="translate(1.667 2.5)" fill="rgba(240,244,248,0.3)"/>
</svg>
