<svg id="braces-dark" xmlns="http://www.w3.org/2000/svg" width="44" height="44" viewBox="0 0 44 44">
  <path id="Path_7" data-name="Path 7" d="M0,0H44V44H0Z" fill="none"/>
  <path id="Path_8" data-name="Path 8" d="M5.667,30.5V23.717a2.75,2.75,0,0,0-2.75-2.75H2V18.033h.917a2.75,2.75,0,0,0,2.75-2.75V8.5a5.5,5.5,0,0,1,5.5-5.5H13V6.667H11.167A1.833,1.833,0,0,0,9.333,8.5v7.517A3.667,3.667,0,0,1,6.814,19.5a3.667,3.667,0,0,1,2.519,3.483V30.5a1.833,1.833,0,0,0,1.833,1.833H13V36H11.167a5.5,5.5,0,0,1-5.5-5.5ZM35,23.717V30.5A5.5,5.5,0,0,1,29.5,36H27.667V32.333H29.5A1.833,1.833,0,0,0,31.333,30.5V22.983A3.667,3.667,0,0,1,33.852,19.5a3.667,3.667,0,0,1-2.519-3.483V8.5A1.833,1.833,0,0,0,29.5,6.667H27.667V3H29.5A5.5,5.5,0,0,1,35,8.5v6.783a2.75,2.75,0,0,0,2.75,2.75h.917v2.933H37.75A2.75,2.75,0,0,0,35,23.717Z" transform="translate(1.667 2.5)" fill="rgba(240,244,248,0.3)"/>
</svg>
