<svg id="certificate-dark" xmlns="http://www.w3.org/2000/svg" width="44" height="44" viewBox="0 0 44 44">
  <path id="Path_3" data-name="Path 3" d="M0,0H44V44H0Z" fill="none"/>
  <path id="Path_4" data-name="Path 4" d="M27.834,27.115v12.6a.917.917,0,0,1-1.388.787l-7.779-4.668L10.888,40.5A.917.917,0,0,1,9.5,39.712V27.117a14.667,14.667,0,1,1,18.333,0Zm-14.667,2.15v5.592l5.5-3.3,5.5,3.3V29.265a14.709,14.709,0,0,1-11,0Zm5.5-2.6a11,11,0,1,0-11-11A11,11,0,0,0,18.667,26.666Z" transform="translate(3.333 0.834)" fill="rgba(240,244,248,0.3)"/>
</svg>
