<svg id="copyright-dark" xmlns="http://www.w3.org/2000/svg" width="44" height="44" viewBox="0 0 44 44">
  <path id="Path_11" data-name="Path 11" d="M0,0H44V44H0Z" fill="none"/>
  <path id="Path_12" data-name="Path 12" d="M20.333,2A18.333,18.333,0,1,1,2,20.333,18.34,18.34,0,0,1,20.333,2Zm0,3.667A14.667,14.667,0,1,0,35,20.333,14.663,14.663,0,0,0,20.333,5.667Zm0,5.5a9.162,9.162,0,0,1,7.861,4.451L25.052,17.5a5.5,5.5,0,1,0,0,5.66l3.144,1.885a9.167,9.167,0,1,1-7.861-13.882Z" transform="translate(1.667 1.667)" fill="rgba(240,244,248,0.3)"/>
</svg>
