<svg id="lock-dark" xmlns="http://www.w3.org/2000/svg" width="44" height="44" viewBox="0 0 44 44">
  <path id="Path_39" data-name="Path 39" d="M0,0H44V44H0Z" fill="none"/>
  <path id="Path_40" data-name="Path 40" d="M32.333,16.667h1.833A1.833,1.833,0,0,1,36,18.5V36.833a1.833,1.833,0,0,1-1.833,1.833H4.833A1.833,1.833,0,0,1,3,36.833V18.5a1.833,1.833,0,0,1,1.833-1.833H6.667V14.833a12.833,12.833,0,0,1,25.667,0ZM6.667,20.333V35H32.333V20.333Zm11,3.667h3.667v7.333H17.667Zm11-7.333V14.833a9.167,9.167,0,1,0-18.333,0v1.833Z" transform="translate(2.5 1.667)" fill="rgba(240,244,248,0.3)"/>
</svg>
