<svg id="music-dark" xmlns="http://www.w3.org/2000/svg" width="44" height="44" viewBox="0 0 44 44">
  <path id="Path_41" data-name="Path 41" d="M0,0H44V44H0Z" fill="none"/>
  <path id="Path_42" data-name="Path 42" d="M35.833,3V28.667a7.333,7.333,0,1,1-3.667-6.352V6.667h-16.5v22A7.333,7.333,0,1,1,12,22.314V3ZM8.333,32.333a3.667,3.667,0,1,0-3.667-3.667A3.667,3.667,0,0,0,8.333,32.333Zm20.167,0a3.667,3.667,0,1,0-3.667-3.667A3.667,3.667,0,0,0,28.5,32.333Z" transform="translate(0.833 2.5)" fill="rgba(240,244,248,0.3)"/>
</svg>
