<svg id="open-source-dark" xmlns="http://www.w3.org/2000/svg" width="44" height="44" viewBox="0 0 44 44">
  <path id="Path_43" data-name="Path 43" d="M0,0H44V44H0Z" fill="none"/>
  <path id="Path_44" data-name="Path 44" d="M20.333,2A18.336,18.336,0,0,1,26.22,37.7l-.414.136L20.482,23.995a3.643,3.643,0,1,0-.3,0l-5.322,13.84-.413-.136A18.336,18.336,0,0,1,20.333,2Zm0,3.667a14.669,14.669,0,0,0-7.515,27.265l2.713-7.056a7.332,7.332,0,1,1,9.6,0q1.554,4.054,2.711,7.058A14.67,14.67,0,0,0,20.333,5.667Z" transform="translate(1.667 1.667)" fill="rgba(240,244,248,0.3)"/>
</svg>
