<svg id="parentheses-dark" xmlns="http://www.w3.org/2000/svg" width="44" height="44" viewBox="0 0 44 44">
  <path id="Path_45" data-name="Path 45" d="M0,0H44V44H0Z" fill="none"/>
  <path id="Path_46" data-name="Path 46" d="M9.359,36A26.991,26.991,0,0,1,4,19.5,26.991,26.991,0,0,1,9.359,3h3.692A28.5,28.5,0,0,0,8.033,19.5,28.5,28.5,0,0,0,13.051,36Zm18.61,0H24.277a28.5,28.5,0,0,0,5.018-16.5A28.5,28.5,0,0,0,24.277,3h3.692a26.991,26.991,0,0,1,5.359,16.5A26.98,26.98,0,0,1,27.969,36Z" transform="translate(3.333 2.5)" fill="rgba(240,244,248,0.3)"/>
</svg>
