<svg id="table" xmlns="http://www.w3.org/2000/svg" width="44" height="44" viewBox="0 0 44 44">
  <path id="Path_69" data-name="Path 69" d="M0,0H44V44H0Z" fill="none"/>
  <path id="Path_70" data-name="Path 70" d="M21.333,15.833v7.333h11V15.833Zm-3.667,0h-11v7.333h11Zm3.667,16.5h11v-5.5h-11Zm-3.667,0v-5.5h-11v5.5ZM21.333,6.667v5.5h11v-5.5Zm-3.667,0h-11v5.5h11ZM4.833,3H34.167A1.833,1.833,0,0,1,36,4.833V34.167A1.833,1.833,0,0,1,34.167,36H4.833A1.833,1.833,0,0,1,3,34.167V4.833A1.833,1.833,0,0,1,4.833,3Z" transform="translate(2.5 2.5)" fill="rgba(240,244,248,0.3)"/>
</svg>
