<svg id="video-dark" xmlns="http://www.w3.org/2000/svg" width="44" height="44" viewBox="0 0 44 44">
  <path id="Path_19" data-name="Path 19" d="M0,0H44V44H0Z" fill="none"/>
  <path id="Path_20" data-name="Path 20" d="M2,4.821A1.833,1.833,0,0,1,3.819,3H36.848a1.82,1.82,0,0,1,1.819,1.821V34.18A1.833,1.833,0,0,1,36.848,36H3.819A1.821,1.821,0,0,1,2,34.179ZM13,6.667V32.333H27.667V6.667Zm-7.333,0v3.667H9.333V6.667Zm25.667,0v3.667H35V6.667ZM5.667,14v3.667H9.333V14Zm25.667,0v3.667H35V14ZM5.667,21.333V25H9.333V21.333Zm25.667,0V25H35V21.333ZM5.667,28.667v3.667H9.333V28.667Zm25.667,0v3.667H35V28.667Z" transform="translate(1.667 2.5)" fill="rgba(240,244,248,0.3)"/>
</svg>
